<svg xmlns="http://www.w3.org/2000/svg" viewBox="0 -4.7 14 11.7">
    <defs>
        <linearGradient id="folder-gradient" x1="0" x2="1" y1="0" y2="1">
            <stop stop-color="#ffc90c" offset="0%"></stop>
            <stop stop-color="#f86401" offset="100%"></stop>
        </linearGradient>
        <linearGradient id="paper-gradient" x1="0" x2="1" y1="0" y2="1">
            <stop stop-color="#fefffb" offset="0%"></stop>
            <stop stop-color="#dee1f9" offset="70%"></stop>
        </linearGradient>
    </defs>
    <path fill="url(#folder-gradient)" d="M 0.7 -0.8 L 0.4 -2.7 C 0.4 -3.2 0.8 -3.7 1.4 -3.7 L 6 -3.7 L 8.5 -4.7 L 12.7 -4.7 C 13.2 -4.7 13.7 -4.2 13.7 -3.7 L 13.3 -0.8"></path>   
    <path fill="url(#paper-gradient)" d="M 2.4 -2.6 L 2.4 -2.8 C 2.4 -3 2.5 -3.1 2.7 -3.1 L 11.3 -3.1 C 11.5 -3.1 11.6 -3 11.6 -2.8 L 11.6 -2.6"></path>
    <path fill="url(#paper-gradient)" d="M 1.5 -0.9 L 1.5 -2.2 C 1.5 -2.5 1.7 -2.7 2 -2.7 L 12 -2.7 C 12.4 -2.7 12.6 -2.5 12.6 -2.2 L 12.6 -0.9 L 1.5 -0.9"></path>
    <path fill="url(#folder-gradient)" d="M 2 7 C 1.3 7 1 6.7 0.9 6 L 0 0 C 0 -0.5 0.5 -1 1 -1 L 6 -1 L 8.5 -2 L 13 -2 C 13.5 -2 14 -1.5 14 -1 L 13.1 6 C 13 6.7 12.7 7 12 7 L 2 7"></path>
</svg>