<svg class="icon" xmlns="http://www.w3.org/2000/svg" viewBox="-0.5 -4 13 14">
            <defs>
                <linearGradient id="moodle-bottom-gradient" x1="0" x2="0" y1="0" y2="1">
                    <stop stop-color="#d36a00" offset="0%"></stop>
                    <stop stop-color="#ff8000" offset="100%"></stop>
                </linearGradient>
                <linearGradient id="moodle-1-gradient" x1="0" x2="0" y1="0" y2="1">
                    <stop stop-color="#ffdd00" offset="0%"></stop>
                    <stop stop-color="#ffc700" offset="100%"></stop>
                </linearGradient>
                <linearGradient id="moodle-2-gradient" x1="0" x2="0" y1="0" y2="1">
                    <stop stop-color="#ac8600" offset="0%"></stop>
                    <stop stop-color="#ffbc00" offset="100%"></stop>
                </linearGradient>
                <linearGradient id="moodle-pillar-1-gradient" x2="0" y1="0" y2="1">
                    <stop stop-color="#e19e00" offset="0%"></stop>
                    <stop stop-color="#f6ae00" offset="50%"></stop>
                    <stop stop-color="#e19e00" offset="100%"></stop>
                </linearGradient>
                <linearGradient id="moodle-pillar-2-gradient" x2="0" y1="0" y2="1">
                    <stop stop-color="#de9300" offset="0%"></stop>
                    <stop stop-color="#ffa900" offset="50%"></stop>
                    <stop stop-color="#de9300" offset="100%"></stop>
                </linearGradient>
                <linearGradient id="moodle-pillar-3-gradient" x2="0" y1="0" y2="1">
                    <stop stop-color="#e18700" offset="0%"></stop>
                    <stop stop-color="#ff9900" offset="50%"></stop>
                    <stop stop-color="#e18700" offset="100%"></stop>
                </linearGradient>
                <linearGradient id="moodle-pillar-4-gradient" x2="0" y1="0" y2="1">
                    <stop stop-color="#d97700" offset="0%"></stop>
                    <stop stop-color="#ff8c00" offset="50%"></stop>
                    <stop stop-color="#ff8c00" offset="100%"></stop>
                </linearGradient>
            </defs>
            <path fill="url(#moodle-bottom-gradient)" d="M 0 9 C 0 9 0 9 0 9 A 1 1 0 0 0 1 10 L 11 10 A 1 1 0 0 0 12 9 L 10.5 8 L 1.5 8 L 0 9"></path>
            <path fill="url(#moodle-pillar-1-gradient)" d="M 1.5 8 L 1.5 2 L 3 2 L 3 8"></path>
            <path fill="url(#moodle-pillar-2-gradient)" d="M 4 8 L 4 2 L 5.5 2 L 5.5 8"></path>
            <path fill="url(#moodle-pillar-3-gradient)" d="M 6.5 8 L 6.5 2 L 8 2 L 8 8"></path>
            <path fill="url(#moodle-pillar-4-gradient)" d="M 9 8 L 9 2 L 10.5 2 L 10.5 8"></path>
            <path fill="url(#moodle-2-gradient)" d="M 1.5 1 Q 0.5 1 0.5 0 Q 0.5 -1 1.5 -1 L 10.5 -1 Q 11.5 -1 11.5 0 Q 11.5 1 10.5 1 L 1.5 1"></path>
            <path fill="url(#moodle-1-gradient)" d="M 0.5 -0.4 Q -0.5 -0.4 -0.5 -1.5 L 6 -4 L 12.5 -1.5 Q 12.5 -0.5 11.5 -0.5 L 0.5 -0.4 M 6 -2.8 Q 5.3 -2.8 5.3 -2.1 Q 5.3 -1.4 6 -1.4 Q 6.7 -1.4 6.7 -2.1 Q 6.7 -2.8 6 -2.8"></path>
        </svg>