<svg xmlns="http://www.w3.org/2000/svg" viewBox="0 0 9 10">
               <defs>
                <linearGradient id="outer-mu-gradient" x1="0" x2="0" y1="0" y2="1">
                    <stop stop-color="#cebadd" offset="0%"></stop>
                    <stop stop-color="#a97ebb" offset="100%"></stop>
                </linearGradient>
                <linearGradient id="inner-mu-gradient" x1="0" x2="0" y1="0" y2="1">
                    <stop stop-color="#7389b7" offset="0%"></stop>
                    <stop stop-color="#485778" offset="100%"></stop>
                </linearGradient>
                <linearGradient id="inner-mu-gradient-overlay">
                    <stop stop-color="#00000050" offset="0%"></stop>
                    <stop stop-color="#00000000" offset="100%"></stop>
                </linearGradient>
                <linearGradient id="mu-paper-gradient" x1="0" x2="1" y1="0" y2="1">
                    <stop stop-color="#fefffb" offset="0%"></stop>
                    <stop stop-color="#dee1f9" offset="70%"></stop>
                </linearGradient>
            </defs>
            <path fill="url(#outer-mu-gradient)" d="M 0 1 C 0 0.5 0.5 0 1 0 L 8 0 C 8.5 0 9 0.5 9 1 L 9 6 C 9 6.5 8.5 7 8 7 L 1 7 C 0.5 7 0 6.5 0 6 L 0 1"></path>
            <path fill="url(#inner-mu-gradient)" d="M 0.5 1 C 0.5 0.7 0.7 0.5 1 0.5 L 8 0.5 C 8.3 0.5 8.5 0.7 8.5 1 L 8.5 6 C 8.5 6.3 8.3 6.5 8 6.5 L 1 6.5 C 0.7 6.5 0.5 6.3 0.5 6 L 0.5 1"></path>
            <path fill="url(#mu-paper-gradient)" d="M 1.8 1.2 L 3.9 1.2 C 4.1 1.2 4.2 1.3 4.2 1.5 C 4.2 1.7 4.1 1.8 3.9 1.8 L 1.8 1.8 C 1.6 1.8 1.5 1.7 1.5 1.5 C 1.5 1.3 1.5 1.2 1.8 1.2 Z M 4.6 1.2 L 6.3 1.2 C 6.5 1.2 6.6 1.3 6.6 1.5 C 6.6 1.7 6.5 1.8 6.3 1.8 L 4.7 1.8 C 4.5 1.8 4.4 1.7 4.4 1.5 C 4.4 1.3 4.4 1.2 4.7 1.2 Z M 1.8 2 L 4.8 2 C 5 2 5.1 2.1 5.1 2.3 C 5.1 2.5 5 2.6 4.8 2.6 L 1.8 2.6 C 1.6 2.6 1.5 2.5 1.5 2.3 C 1.5 2.1 1.5 2 1.8 2 Z"></path>
            <path fill="url(#mu-paper-gradient)" d="M 3 7 C 4 7 4.5 7.5 4.5 8 L 4.5 9 C 4.5 9.2 4.4 9.3 4.2 9.3 L 1.8 9.3 C 1.6 9.3 1.5 9.2 1.5 9 L 1.5 8 C 1.5 7.5 2 7 3 7"></path>
            <circle fill="url(#mu-paper-gradient)" cx="3" cy="5.5" r="1.3"></circle>
            <path fill="url(#mu-paper-gradient)" d="M 4.7 8.1 L 5 8.3 L 7.2 4.4 L 6.9 4.2 L 4.7 8.1"></path> </svg>